# Blender v2.79 (sub 7) OBJ File: 'barrel.blend'
# www.blender.org
mtllib barrel.mtl
o Cylinder
v 0.000000 0.000000 -0.200000
v 0.000000 0.600000 -0.200000
v 0.173205 0.000000 -0.100000
v 0.173205 0.600000 -0.100000
v 0.173205 0.000000 0.100000
v 0.173205 0.600000 0.100000
v -0.000000 0.000000 0.200000
v -0.000000 0.600000 0.200000
v -0.173205 0.000000 0.100000
v -0.173205 0.600000 0.100000
v -0.173205 0.000000 -0.100000
v -0.173205 0.600000 -0.100000
v 0.000000 0.580000 -0.200000
v 0.173205 0.580000 -0.100000
v 0.173205 0.580000 0.100000
v -0.000000 0.580000 0.200000
v -0.173205 0.580000 0.100000
v -0.173205 0.580000 -0.100000
v 0.173205 0.020010 -0.100000
v 0.173205 0.020010 0.100000
v -0.000000 0.020010 0.200000
v -0.173205 0.020010 0.100000
v -0.173205 0.020010 -0.100000
v 0.000000 0.020010 -0.200000
v 0.000000 0.350005 -0.200000
v 0.173205 0.350005 -0.100000
v 0.173205 0.350005 0.100000
v -0.000000 0.350005 0.200000
v -0.173205 0.350005 0.100000
v -0.173205 0.350005 -0.100000
v 0.173205 0.300334 -0.100000
v 0.173205 0.300334 0.100000
v -0.000000 0.300334 0.200000
v -0.173205 0.300334 0.100000
v -0.173205 0.300334 -0.100000
v 0.000000 0.300334 -0.200000
v 0.173205 0.249990 -0.100000
v 0.173205 0.249990 0.100000
v -0.000000 0.249990 0.200000
v -0.173205 0.249990 0.100000
v -0.173205 0.249990 -0.100000
v 0.000000 0.249990 -0.200000
vn -0.5000 0.0000 -0.8660
vn -1.0000 0.0000 0.0000
vn -0.5000 0.0000 0.8660
vn 0.5000 0.0000 0.8660
vn 1.0000 0.0000 0.0000
vn 0.5000 0.0000 -0.8660
vn 0.0000 1.0000 -0.0000
vn 0.0000 -1.0000 0.0000
usemtl body
s off
f 18//1 25//1 30//1
f 17//2 30//2 29//2
f 16//3 29//3 28//3
f 15//4 28//4 27//4
f 14//5 27//5 26//5
f 13//6 26//6 25//6
f 42//6 19//6 24//6
f 37//5 20//5 19//5
f 38//4 21//4 20//4
f 39//3 22//3 21//3
f 40//2 23//2 22//2
f 41//1 24//1 23//1
f 18//1 13//1 25//1
f 17//2 18//2 30//2
f 16//3 17//3 29//3
f 15//4 16//4 28//4
f 14//5 15//5 27//5
f 13//6 14//6 26//6
f 42//6 37//6 19//6
f 37//5 38//5 20//5
f 38//4 39//4 21//4
f 39//3 40//3 22//3
f 40//2 41//2 23//2
f 41//1 42//1 24//1
usemtl border
f 2//6 14//6 13//6
f 4//5 15//5 14//5
f 6//4 16//4 15//4
f 8//3 17//3 16//3
f 10//2 18//2 17//2
f 12//1 13//1 18//1
f 24//6 3//6 1//6
f 19//5 5//5 3//5
f 20//4 7//4 5//4
f 21//3 9//3 7//3
f 22//2 11//2 9//2
f 23//1 1//1 11//1
f 2//6 4//6 14//6
f 4//5 6//5 15//5
f 6//4 8//4 16//4
f 8//3 10//3 17//3
f 10//2 12//2 18//2
f 12//1 2//1 13//1
f 24//6 19//6 3//6
f 19//5 20//5 5//5
f 20//4 21//4 7//4
f 21//3 22//3 9//3
f 22//2 23//2 11//2
f 23//1 24//1 1//1
usemtl cap
f 10//7 8//7 6//7
f 9//8 11//8 3//8
f 6//7 4//7 10//7
f 4//7 2//7 10//7
f 2//7 12//7 10//7
f 11//8 1//8 3//8
f 3//8 5//8 7//8
f 7//8 9//8 3//8
usemtl band
f 25//6 31//6 36//6
f 26//5 32//5 31//5
f 27//4 33//4 32//4
f 28//3 34//3 33//3
f 29//2 35//2 34//2
f 30//1 36//1 35//1
f 25//6 26//6 31//6
f 26//5 27//5 32//5
f 27//4 28//4 33//4
f 28//3 29//3 34//3
f 29//2 30//2 35//2
f 30//1 25//1 36//1
usemtl secondary_band
f 35//1 42//1 41//1
f 34//2 41//2 40//2
f 33//3 40//3 39//3
f 32//4 39//4 38//4
f 31//5 38//5 37//5
f 36//6 37//6 42//6
f 35//1 36//1 42//1
f 34//2 35//2 41//2
f 33//3 34//3 40//3
f 32//4 33//4 39//4
f 31//5 32//5 38//5
f 36//6 31//6 37//6
