# Blender v2.79 (sub 7) OBJ File: ''
# www.blender.org
mtllib door.mtl
o Cube
v 0.500000 0.000000 -0.250000
v 0.500000 0.000000 0.250000
v -0.500000 0.000000 0.250000
v -0.500000 0.000000 -0.250000
v 0.500000 1.000000 -0.250000
v 0.499999 1.000000 0.250000
v -0.500000 1.000000 0.250000
v -0.500000 1.000000 -0.250000
vt 1.000000 -0.000000
vt 0.000000 1.000000
vt 0.000000 -0.000000
vt 1.000000 -0.000000
vt 0.000000 1.000000
vt -0.000000 0.000000
vt 0.333333 0.333333
vt 0.666667 0.000000
vt 0.666667 0.333333
vt 1.000000 1.000000
vt 0.000000 0.000000
vt 1.000000 0.000000
vt 0.000000 1.000000
vt 0.000000 0.000000
vt 1.000000 1.000000
vt -0.000000 1.000000
vt 1.000000 1.000000
vt 1.000000 1.000000
vt 0.333333 0.000000
vt 0.000000 1.000000
vt 1.000000 0.000000
vn 0.0000 -1.0000 0.0000
vn 0.0000 1.0000 0.0000
vn 1.0000 -0.0000 0.0000
vn -0.0000 -0.0000 1.0000
vn -1.0000 -0.0000 -0.0000
vn 0.0000 0.0000 -1.0000
usemtl Material
s off
f 2/1/1 4/2/1 1/3/1
f 8/4/2 6/5/2 5/6/2
f 5/7/3 2/8/3 1/9/3
f 6/10/4 3/11/4 2/1/4
f 3/12/5 8/13/5 4/14/5
f 1/3/6 8/15/6 5/16/6
f 2/1/1 3/17/1 4/2/1
f 8/4/2 7/18/2 6/5/2
f 5/7/3 6/19/3 2/8/3
f 6/10/4 7/20/4 3/11/4
f 3/12/5 7/18/5 8/13/5
f 1/3/6 4/21/6 8/15/6
