# Blender v2.79 (sub 7) OBJ File: ''
# www.blender.org
mtllib default.mtl
o Cube.001
v -0.150000 0.000000 -0.150000
v 0.150000 -0.000000 0.150000
v 0.150000 0.000000 -0.150000
v 0.150000 0.300000 0.150000
v -0.150000 0.300000 -0.150000
v 0.150000 0.300000 -0.150000
v -0.150000 -0.000000 0.150000
v -0.150000 0.300000 0.150000
vt 0.000000 1.000000
vt 0.000000 0.000000
vt 1.000000 -0.000000
vt 0.000000 0.000000
vt 1.000000 0.000000
vt 1.000000 1.000000
vt 0.000000 -0.000000
vt 1.000000 0.000000
vt 1.000000 1.000000
vt 0.000000 0.000000
vt 1.000000 1.000000
vt 1.000000 0.000000
vt 1.000000 1.000000
vt -0.000000 1.000000
vt -0.000000 1.000000
vt 1.000000 1.000000
vt 0.000000 1.000000
vt -0.000000 1.000000
vt 0.000000 -0.000000
vt 1.000000 0.000000
vn 0.0000 -1.0000 -0.0000
vn 0.0000 1.0000 0.0000
vn 1.0000 0.0000 0.0000
vn 0.0000 -0.0000 1.0000
vn -1.0000 0.0000 0.0000
vn 0.0000 0.0000 -1.0000
usemtl Material.001
s 1
f 1/1/1 3/2/1 2/3/1
f 4/4/2 6/5/2 5/6/2
f 2/7/3 3/8/3 6/9/3
f 7/10/4 2/3/4 4/11/4
f 7/12/5 8/13/5 5/14/5
f 5/6/6 6/15/6 3/2/6
f 1/1/1 2/3/1 7/16/1
f 4/4/2 5/6/2 8/17/2
f 2/7/3 6/9/3 4/18/3
f 7/10/4 4/11/4 8/17/4
f 7/12/5 5/14/5 1/19/5
f 5/6/6 3/2/6 1/20/6
